<?xml version="1.0" encoding="UTF-8" standalone="no"?>
<!DOCTYPE svg PUBLIC "-//W3C//DTD SVG 1.1//EN" "http://www.w3.org/Graphics/SVG/1.1/DTD/svg11.dtd">
<svg width="100%" height="100%" viewBox="0 0 1177 137" version="1.1" xmlns="http://www.w3.org/2000/svg" xmlns:xlink="http://www.w3.org/1999/xlink" xml:space="preserve" xmlns:serif="http://www.serif.com/" style="fill-rule:evenodd;clip-rule:evenodd;stroke-linejoin:round;stroke-miterlimit:1.41421;">
    <g transform="matrix(1,0,0,1,-256.198,-240.094)">
        <g transform="matrix(4.16667,0,0,4.16667,-534.748,-560.656)">
            <g transform="matrix(1,0,0,1,206.412,192.543)">
                <path d="M0,32.209L-6.18,32.209L-9.974,8.976L-9.974,32.209L-16.585,32.209L-16.585,-0.001L-6.102,-0.001L-3.208,16.802L-0.333,-0.001L10.249,-0.001L10.249,32.21L3.56,32.21L3.56,8.977L0,32.209Z" style="fill:rgb(0,33,61);fill-rule:nonzero;"/>
            </g>
            <g transform="matrix(1,0,0,1,227.887,218.706)">
                <path d="M0,-20.119L-0.627,-20.119L-1.545,-4.671L0.919,-4.671L0,-20.119ZM5.144,-26.165L8.586,6.046L1.936,6.046L1.446,1.193L-2.035,1.193L-2.465,6.046L-9.154,6.046L-5.633,-26.165L5.144,-26.165Z" style="fill:rgb(0,33,61);fill-rule:nonzero;"/>
            </g>
            <g transform="matrix(1,0,0,1,255.484,224.753)">
                <path d="M0,-32.211L0,0L-6.728,0L-10.171,-16.115L-10.171,0L-16.899,0L-16.899,-32.211L-9.819,-32.211L-6.65,-16.803L-6.65,-32.211L0,-32.211Z" style="fill:rgb(0,33,61);fill-rule:nonzero;"/>
            </g>
            <g transform="matrix(1,0,0,1,266.964,198.546)">
                <path d="M0,20.202C0.248,20.202 0.466,20.151 0.656,20.049C0.844,19.948 0.994,19.793 1.106,19.584C1.217,19.375 1.304,19.177 1.369,18.988C1.434,18.8 1.48,18.546 1.506,18.23C1.533,17.913 1.548,17.671 1.555,17.502C1.562,17.334 1.566,17.101 1.566,16.805L1.566,16.643L1.566,3.701C1.566,3.62 1.568,3.459 1.575,3.216C1.582,2.974 1.582,2.792 1.575,2.67C1.568,2.548 1.562,2.37 1.555,2.134C1.548,1.899 1.529,1.716 1.496,1.588C1.464,1.46 1.425,1.298 1.379,1.103C1.333,0.908 1.271,0.759 1.193,0.658C1.115,0.557 1.023,0.45 0.919,0.335C0.815,0.221 0.685,0.14 0.528,0.092C0.372,0.045 0.196,0.021 0,0.021C-0.274,0.021 -0.512,0.068 -0.713,0.163C-0.916,0.256 -1.074,0.409 -1.193,0.617C-1.31,0.826 -1.408,1.015 -1.486,1.184C-1.564,1.352 -1.617,1.602 -1.642,1.931C-1.668,2.262 -1.682,2.498 -1.682,2.639L-1.682,16.562C-1.682,16.859 -1.679,17.094 -1.672,17.27C-1.666,17.444 -1.65,17.701 -1.624,18.038C-1.597,18.375 -1.548,18.648 -1.477,18.857C-1.406,19.067 -1.31,19.286 -1.193,19.515C-1.075,19.744 -0.917,19.916 -0.714,20.03C-0.512,20.144 -0.273,20.202 0,20.202M-8.488,17.512L-8.488,2.165C-8.488,-0.517 -7.787,-2.597 -6.385,-4.073C-4.983,-5.549 -2.874,-6.307 -0.058,-6.348C2.837,-6.307 4.985,-5.549 6.387,-4.073C7.788,-2.597 8.489,-0.517 8.489,2.165L8.489,17.512C8.489,18.819 8.33,20.009 8.01,21.08C7.69,22.151 7.204,23.107 6.553,23.941C5.901,24.778 5.018,25.425 3.903,25.883C2.787,26.341 1.506,26.55 0.06,26.509C-1.467,26.55 -2.787,26.341 -3.901,25.883C-5.016,25.425 -5.899,24.778 -6.552,23.941C-7.203,23.107 -7.689,22.151 -8.008,21.08C-8.328,20.009 -8.488,18.819 -8.488,17.512" style="fill:rgb(0,33,61);fill-rule:nonzero;"/>
            </g>
            <g transform="matrix(1,0,0,1,324.41,192.357)">
                <path d="M0,31.781C-3.194,31.781 -5.473,31.053 -6.836,29.592C-8.198,28.132 -8.88,25.876 -8.88,22.824L-8.88,19.772L-2.074,19.772L-2.074,22.569C-2.074,24.578 -1.526,25.582 -0.431,25.582C0.078,25.582 0.478,25.386 0.772,24.995C1.066,24.604 1.213,24.089 1.213,23.45C1.213,22.616 1.098,21.912 0.871,21.338C0.642,20.764 0.297,20.22 -0.166,19.705C-0.629,19.19 -1.388,18.476 -2.444,17.563L-5.359,15.04C-7.706,13.019 -8.879,10.737 -8.879,8.195C-8.879,5.431 -8.172,3.374 -6.757,2.024C-5.342,0.675 -3.396,0 -0.919,0L0.294,0C0.932,0 1.755,0.146 2.758,0.44C3.762,0.734 4.656,1.223 5.438,1.907C6.22,2.591 6.807,3.544 7.199,4.762C7.59,5.982 7.786,7.471 7.786,9.231L0.804,9.231L0.764,7.354C0.751,7.002 0.6,6.689 0.314,6.415C0.027,6.141 -0.292,6.004 -0.644,6.004C-1.1,6.004 -1.489,6.144 -1.808,6.425C-2.127,6.705 -2.287,7.067 -2.287,7.51C-2.287,8.397 -1.642,9.362 -0.351,10.405L3.815,13.769C4.493,14.315 5.083,14.873 5.585,15.44C6.087,16.008 6.485,16.568 6.779,17.122C7.072,17.676 7.31,18.179 7.492,18.628C7.675,19.078 7.802,19.567 7.874,20.095C7.945,20.623 7.988,21.022 8.001,21.289C8.014,21.556 8.021,21.905 8.021,22.335C8.021,23.43 7.949,24.424 7.805,25.316C7.662,26.21 7.408,27.07 7.043,27.9C6.678,28.727 6.199,29.418 5.605,29.973C5.011,30.526 4.243,30.967 3.298,31.291C2.351,31.62 1.252,31.781 0,31.781" style="fill:rgb(0,33,61);fill-rule:nonzero;"/>
            </g>
            <g transform="matrix(1,0,0,1,342.97,198.438)">
                <path d="M0,19.54C0.249,19.54 0.466,19.491 0.656,19.393C0.845,19.296 0.994,19.146 1.106,18.944C1.217,18.742 1.304,18.55 1.37,18.367C1.434,18.184 1.481,17.94 1.507,17.634C1.533,17.328 1.549,17.093 1.555,16.93C1.562,16.767 1.566,16.541 1.566,16.255L1.566,16.099L1.566,3.58C1.566,3.502 1.568,3.345 1.576,3.111C1.581,2.876 1.581,2.7 1.576,2.583C1.569,2.466 1.562,2.293 1.555,2.065C1.549,1.836 1.53,1.661 1.496,1.537C1.464,1.413 1.425,1.257 1.38,1.068C1.333,0.879 1.272,0.735 1.193,0.638C1.115,0.54 1.024,0.435 0.919,0.325C0.816,0.214 0.685,0.136 0.529,0.09C0.374,0.045 0.196,0.022 0,0.022C-0.273,0.022 -0.511,0.068 -0.714,0.158C-0.915,0.25 -1.074,0.396 -1.193,0.598C-1.31,0.8 -1.408,0.984 -1.487,1.146C-1.564,1.309 -1.617,1.55 -1.642,1.87C-1.67,2.189 -1.682,2.417 -1.682,2.554L-1.682,16.021C-1.682,16.308 -1.679,16.536 -1.672,16.705C-1.665,16.875 -1.649,17.123 -1.623,17.449C-1.597,17.775 -1.548,18.038 -1.476,18.241C-1.404,18.443 -1.31,18.655 -1.193,18.877C-1.074,19.099 -0.916,19.265 -0.714,19.376C-0.511,19.485 -0.273,19.54 0,19.54M-8.488,16.939L-8.488,2.094C-8.488,-0.501 -7.787,-2.512 -6.386,-3.94C-4.984,-5.368 -2.874,-6.101 -0.059,-6.141C2.836,-6.101 4.984,-5.368 6.386,-3.94C7.787,-2.513 8.488,-0.501 8.488,2.094L8.488,16.939C8.488,18.204 8.328,19.355 8.008,20.39C7.689,21.428 7.203,22.35 6.552,23.158C5.899,23.967 5.016,24.593 3.901,25.036C2.786,25.478 1.505,25.681 0.057,25.641C-1.467,25.681 -2.789,25.478 -3.904,25.036C-5.018,24.592 -5.901,23.966 -6.554,23.158C-7.206,22.35 -7.691,21.428 -8.011,20.39C-8.328,19.355 -8.488,18.204 -8.488,16.939" style="fill:rgb(0,33,61);fill-rule:nonzero;"/>
            </g>
            <g transform="matrix(1,0,0,1,354.451,192.631)">
                <path d="M0,31.156L0,0L6.884,0L6.884,25.074L13.965,25.074L13.965,31.155L0,31.155L0,31.156Z" style="fill:rgb(0,33,61);fill-rule:nonzero;"/>
            </g>
            <g transform="matrix(1,0,0,1,370.177,201.23)">
                <path d="M0,14.303L0,-8.599L6.688,-8.599L6.688,13.834C6.688,14.173 6.692,14.44 6.699,14.636C6.705,14.831 6.738,15.098 6.796,15.438C6.856,15.777 6.939,16.045 7.052,16.239C7.162,16.435 7.327,16.609 7.549,16.758C7.77,16.908 8.046,16.982 8.371,16.982C8.645,16.982 8.883,16.937 9.086,16.846C9.288,16.755 9.447,16.614 9.565,16.427C9.682,16.238 9.777,16.055 9.849,15.878C9.921,15.703 9.97,15.467 9.994,15.174C10.022,14.88 10.038,14.656 10.044,14.499C10.049,14.342 10.054,14.121 10.054,13.834L10.054,13.697L10.054,-8.599L16.742,-8.599L16.742,14.303C16.742,17.119 16.068,19.259 14.718,20.719C13.369,22.18 11.265,22.902 8.41,22.89C5.503,22.902 3.374,22.18 2.025,20.719C0.675,19.259 0,17.119 0,14.303" style="fill:rgb(0,33,61);fill-rule:nonzero;"/>
            </g>
            <g transform="matrix(1,0,0,1,388.913,223.786)">
                <path d="M0,-31.156L15.061,-31.156L15.061,-25.152L10.973,-25.152L10.973,0L4.087,0L4.087,-25.152L0,-25.152L0,-31.156Z" style="fill:rgb(0,33,61);fill-rule:nonzero;"/>
            </g>
            <g transform="matrix(1,0,0,1,0,-79.584)">
                <rect x="406.087" y="272.214" width="6.65" height="31.156" style="fill:rgb(0,33,61);"/>
            </g>
            <g transform="matrix(1,0,0,1,424.218,198.438)">
                <path d="M0,19.54C0.247,19.54 0.466,19.491 0.654,19.393C0.844,19.296 0.994,19.146 1.104,18.944C1.215,18.742 1.303,18.55 1.368,18.367C1.434,18.184 1.478,17.94 1.505,17.634C1.532,17.328 1.548,17.093 1.554,16.93C1.56,16.767 1.564,16.541 1.564,16.255L1.564,16.099L1.564,3.58C1.564,3.502 1.567,3.345 1.574,3.111C1.581,2.876 1.581,2.7 1.574,2.583C1.567,2.466 1.56,2.293 1.554,2.065C1.548,1.836 1.529,1.661 1.496,1.537C1.463,1.413 1.424,1.257 1.378,1.068C1.333,0.879 1.271,0.735 1.193,0.638C1.115,0.54 1.022,0.435 0.92,0.325C0.814,0.214 0.686,0.136 0.528,0.09C0.371,0.045 0.196,0.022 0.001,0.022C-0.274,0.022 -0.511,0.068 -0.713,0.158C-0.916,0.25 -1.076,0.396 -1.193,0.598C-1.31,0.8 -1.409,0.984 -1.486,1.146C-1.566,1.309 -1.618,1.55 -1.643,1.87C-1.669,2.189 -1.682,2.417 -1.682,2.554L-1.682,16.021C-1.682,16.308 -1.679,16.536 -1.673,16.705C-1.666,16.875 -1.651,17.123 -1.624,17.449C-1.598,17.775 -1.549,18.038 -1.478,18.241C-1.406,18.443 -1.311,18.655 -1.194,18.877C-1.077,19.099 -0.917,19.265 -0.714,19.376C-0.513,19.485 -0.275,19.54 0,19.54M-8.488,16.939L-8.488,2.094C-8.488,-0.501 -7.788,-2.512 -6.387,-3.94C-4.984,-5.368 -2.875,-6.101 -0.06,-6.141C2.836,-6.101 4.983,-5.368 6.384,-3.94C7.788,-2.513 8.488,-0.501 8.488,2.094L8.488,16.939C8.488,18.204 8.328,19.355 8.009,20.39C7.689,21.428 7.203,22.35 6.552,23.158C5.9,23.967 5.017,24.593 3.901,25.036C2.786,25.478 1.504,25.681 0.058,25.641C-1.469,25.681 -2.787,25.478 -3.903,25.036C-5.017,24.592 -5.901,23.966 -6.553,23.158C-7.206,22.35 -7.691,21.428 -8.011,20.39C-8.329,19.355 -8.488,18.204 -8.488,16.939" style="fill:rgb(0,33,61);fill-rule:nonzero;"/>
            </g>
            <g transform="matrix(1,0,0,1,452.596,223.786)">
                <path d="M0,-31.156L0,0L-6.729,0L-10.171,-15.587L-10.171,0L-16.9,0L-16.9,-31.156L-9.817,-31.156L-6.649,-16.252L-6.649,-31.156L0,-31.156Z" style="fill:rgb(0,33,61);fill-rule:nonzero;"/>
            </g>
            <g transform="matrix(1,0,0,1,464.116,192.357)">
                <path d="M0,31.781C-3.194,31.781 -5.473,31.053 -6.836,29.592C-8.198,28.132 -8.88,25.876 -8.88,22.824L-8.88,19.772L-2.074,19.772L-2.074,22.569C-2.074,24.578 -1.525,25.582 -0.431,25.582C0.077,25.582 0.478,25.386 0.772,24.995C1.066,24.604 1.212,24.089 1.212,23.45C1.212,22.616 1.097,21.912 0.87,21.338C0.641,20.764 0.296,20.22 -0.168,19.705C-0.629,19.19 -1.39,18.476 -2.446,17.563L-5.361,15.04C-7.707,13.019 -8.881,10.737 -8.881,8.195C-8.881,5.431 -8.173,3.374 -6.758,2.024C-5.342,0.675 -3.397,0 -0.92,0L0.293,0C0.932,0 1.754,0.146 2.758,0.44C3.762,0.734 4.653,1.223 5.436,1.907C6.219,2.591 6.807,3.544 7.197,4.762C7.589,5.982 7.785,7.471 7.785,9.231L0.8,9.231L0.761,7.354C0.748,7.002 0.599,6.689 0.313,6.415C0.024,6.141 -0.295,6.004 -0.648,6.004C-1.103,6.004 -1.49,6.144 -1.81,6.425C-2.132,6.705 -2.289,7.067 -2.289,7.51C-2.289,8.397 -1.645,9.362 -0.355,10.405L3.813,13.769C4.49,14.315 5.08,14.873 5.582,15.44C6.084,16.008 6.484,16.568 6.775,17.122C7.069,17.676 7.308,18.179 7.491,18.628C7.671,19.078 7.8,19.567 7.872,20.095C7.942,20.623 7.985,21.022 7.999,21.289C8.011,21.556 8.019,21.905 8.019,22.335C8.019,23.43 7.947,24.424 7.802,25.316C7.659,26.21 7.406,27.07 7.04,27.9C6.675,28.727 6.196,29.418 5.603,29.973C5.008,30.526 4.241,30.967 3.296,31.291C2.351,31.62 1.252,31.781 0,31.781" style="fill:rgb(0,33,61);fill-rule:nonzero;"/>
            </g>
            <g transform="matrix(1,0,0,1,0,-79.088)">
                <path d="M287.195,271.268L279.486,271.268L279.486,279.017L287.195,279.017L287.195,271.268ZM304.25,303.82L312.04,303.82L312.04,296.072L304.25,296.072L304.25,303.82ZM312.04,283.668L304.25,283.668L304.25,291.421L312.04,291.421L312.04,283.668ZM287.195,296.072L279.486,296.072L279.486,303.82L287.195,303.82L287.195,296.072ZM299.6,296.072L291.846,296.072L291.846,303.82L299.6,303.82L299.6,296.072ZM304.25,279.017L312.04,279.017L312.04,271.268L304.25,271.268L304.25,279.017ZM279.486,291.421L287.195,291.421L287.195,283.668L279.486,283.668L279.486,291.421ZM291.846,279.017L299.6,279.017L299.6,271.268L291.846,271.268L291.846,279.017ZM299.6,291.421L291.846,291.421L291.846,283.668L299.6,283.668L299.6,291.421Z" style="fill:rgb(0,33,61);fill-rule:nonzero;"/>
            </g>
        </g>
    </g>
</svg>
